<svg preserveAspectRatio="xMidYMid meet" xmlns="http://www.w3.org/2000/svg" viewBox="489.5 73 511 511"><path fill="#FF6F61" fill-rule="evenodd" d="M 739.9000000000001,131.69999999999993 C 737.5000000000001,135.9999999999999 734.5000000000001,141.29999999999995 733.3000000000001,143.5 C 732.0000000000001,145.70000000000005 730.0000000000001,149.39999999999998 728.9000000000001,151.69999999999993 C 727.8000000000001,154.0999999999999 726.5000000000001,155.9999999999999 726.1,156.0 C 725.6,156.0 725.0,156.79999999999995 724.7,157.69999999999993 C 724.3000000000001,158.69999999999993 722.0,163.0999999999999 719.5,167.5 C 717.0,171.89999999999998 713.6,178.0 712.0,181.0 C 710.3,184.0 708.6,187.20000000000005 708.0,188.0 C 705.8,191.5 698.3,204.70000000000005 697.0,207.5 C 696.2,209.10000000000002 693.4,214.10000000000002 690.9000000000001,218.5 C 688.3000000000001,222.89999999999998 684.8000000000001,229.39999999999998 682.9000000000001,233.0 C 681.1000000000001,236.60000000000002 679.2,239.60000000000002 678.8000000000001,239.79999999999995 C 678.4000000000001,240.0 678.0000000000001,240.5999999999999 678.0,241.0 C 678.0,241.5 676.7,244.20000000000005 675.0,247.0 C 673.4,249.79999999999995 672.0,252.70000000000005 672.0,253.5 C 672.0,254.29999999999995 671.4,255.29999999999995 670.6,255.69999999999993 C 669.9,256.0999999999999 667.1,260.4999999999999 664.5,265.5 C 662.0,270.4 658.5,276.5 656.9000000000001,279.0 C 655.3000000000001,281.5 653.1000000000001,285.29999999999995 652.0,287.5 C 650.8,289.70000000000005 648.8,293.29999999999995 647.4000000000001,295.5 C 646.1000000000001,297.70000000000005 643.6000000000001,302.4 641.9000000000001,305.9 C 640.2,309.5 637.9000000000001,313.2 636.9000000000001,314.4 C 635.8000000000001,315.5 635.0000000000001,317.2 635.0,318.09999999999997 C 635.0,319.09999999999997 634.4,320.49999999999994 633.7,321.2 C 632.0,322.9 628.2,329.5 623.5,338.7 C 621.5,342.59999999999997 619.2,346.4 618.4000000000001,347.0 C 617.6000000000001,347.7 617.0000000000001,348.6 617.0,349.0 C 617.0,349.5 615.0,353.3 612.5,357.4 C 610.0,361.59999999999997 608.0,365.2 608.0,365.5 C 608.0,365.7 606.6,367.9 605.0,370.4 C 603.3,372.79999999999995 600.8,377.29999999999995 599.4,380.2 C 596.3,386.7 593.9,390.9 590.8000000000001,395.79999999999995 C 589.5000000000001,397.79999999999995 587.3000000000001,401.9 586.0,404.7 C 584.6,407.59999999999997 583.2,410.0 582.8000000000001,410.0 C 582.4000000000001,410.0 581.2,411.7 580.2,413.7 C 575.6,422.8 574.6,424.59999999999997 572.8000000000001,426.9 C 571.8000000000001,428.2 571.0000000000001,429.79999999999995 571.0,430.4 C 571.0,431.0 573.8,433.09999999999997 577.3000000000001,435.0 C 580.7,436.8 585.8000000000001,439.8 588.5,441.5 C 591.3,443.3 595.5,445.8 598.0,447.2 C 604.1,450.59999999999997 608.2,453.0 617.0,458.2 C 621.1,460.7 634.0,468.2 645.5,475.0 C 657.1,481.7 670.8,489.8 676.0,493.0 C 690.7,501.9 707.9,512.0 714.0,515.3 C 717.0,517.0 722.4,520.2 726.0,522.5 C 729.6,524.8 735.2,528.1 738.4000000000001,530.0 L 744.3000000000001,533.3 L 748.9000000000001,530.9 C 751.4000000000001,529.5999999999999 757.3000000000001,526.2 762.0,523.4 C 771.2,517.9 802.5,499.4 824.0,486.7 C 831.4,482.4 844.0,474.9 852.0,470.2 C 896.4,444.0 910.1,436.0 914.8000000000001,433.59999999999997 C 916.5000000000001,432.7 918.0000000000001,431.4 918.0,430.7 C 918.0,430.09999999999997 915.9,425.9 913.4000000000001,421.5 C 910.9000000000001,417.1 907.4000000000001,411.0 905.8000000000001,408.0 C 900.7,398.8 898.5000000000001,395.0 892.2,384.0 C 874.8000000000001,353.6 865.4000000000001,336.8 862.2,331.0 C 860.3000000000001,327.4 858.0,323.4 857.0,322.0 C 856.1,320.6 853.8,316.8 852.1,313.5 C 850.3000000000001,310.2 847.8000000000001,305.7 846.5,303.5 C 845.3,301.3 839.7,291.5 834.1,281.69999999999993 C 828.6,271.9999999999999 824.0,263.69999999999993 824.0,263.5 C 824.0,263.20000000000005 823.0,261.29999999999995 821.7,259.19999999999993 C 820.4000000000001,257.19999999999993 817.7,252.5999999999999 815.8000000000001,249.0 C 808.9000000000001,236.39999999999998 806.9000000000001,232.79999999999995 785.5,195.0 C 778.3,182.29999999999995 771.7,170.39999999999998 758.7,147.0 C 751.8000000000001,134.70000000000005 745.7,124.39999999999998 745.2,124.19999999999993 C 744.7,124.09999999999991 742.3000000000001,127.39999999999998 739.9000000000001,131.69999999999993 M 748.0,225.5 C 748.0,226.20000000000005 749.8,229.29999999999995 761.0,249.0 C 763.4,253.10000000000002 765.7,256.6 766.1,256.79999999999995 C 766.6,257.0 767.0,257.79999999999995 767.0,258.5 C 767.0,259.6 790.8,303.1 794.0,308.0 C 794.6,308.8 795.7,310.8 796.6,312.5 C 797.4,314.1 798.7,316.4 799.3000000000001,317.5 C 802.9000000000001,323.5 809.0000000000001,334.3 812.8000000000001,341.4 C 815.2,345.9 820.7,355.59999999999997 824.9000000000001,363.0 C 829.2,370.4 835.5000000000001,381.5 838.9000000000001,387.7 C 842.3000000000001,393.8 845.7,399.4 846.5,400.0 C 847.3,400.7 848.0,401.8 848.0,402.4 C 848.0,403.09999999999997 849.4,406.2 851.1,409.29999999999995 L 854.2,415.0 L 851.0,416.79999999999995 C 849.3,417.69999999999993 845.0,420.4 841.4000000000001,422.7 C 837.8000000000001,425.09999999999997 832.9000000000001,427.8 830.6,428.9 C 828.2,429.9 825.9,431.29999999999995 825.6,431.9 C 825.2,432.5 823.4,433.7 821.7,434.5 C 819.9000000000001,435.3 815.4000000000001,438.0 811.5,440.4 C 807.7,442.9 803.9,444.9 803.3000000000001,445.0 C 802.6,445.0 802.0000000000001,445.4 802.0,445.9 C 802.0,446.4 801.0,447.2 799.8000000000001,447.5 C 798.5000000000001,447.9 794.5000000000001,450.2 790.8000000000001,452.59999999999997 C 787.1,454.99999999999994 783.8000000000001,456.99999999999994 783.4000000000001,457.0 C 782.8000000000001,457.0 762.4000000000001,468.8 754.0,474.09999999999997 C 753.2,474.59999999999997 750.8,475.9 748.7,477.0 L 745.0,479.0 L 739.1,475.79999999999995 C 735.8000000000001,473.99999999999994 724.2,467.19999999999993 713.3000000000001,460.79999999999995 C 702.4000000000001,454.4 692.3000000000001,448.69999999999993 690.8000000000001,448.09999999999997 C 689.4000000000001,447.59999999999997 687.9000000000001,446.7 687.6,446.09999999999997 C 687.3000000000001,445.59999999999997 683.9,443.49999999999994 680.2,441.4 C 676.5,439.4 670.4000000000001,435.79999999999995 666.5,433.5 C 662.7,431.2 655.0,426.7 649.5,423.5 C 634.2,414.6 634.5,415.2 640.0,406.09999999999997 C 642.4,401.9 648.7,390.79999999999995 655.3000000000001,379.0 C 656.6,376.5 659.5000000000001,371.6 661.5,368.0 C 663.6,364.4 670.0,353.2 675.7,343.0 C 681.4000000000001,332.8 687.1,322.9 688.2,321.0 C 690.2,317.6 692.0,314.4 700.0,299.5 C 702.0,295.6 705.5,289.29999999999995 707.7,285.5 C 709.9000000000001,281.6 715.8000000000001,271.29999999999995 720.7,262.5 C 725.7,253.70000000000005 731.3000000000001,243.79999999999995 733.2,240.5 C 735.2,237.20000000000005 738.5,231.29999999999995 740.5,227.29999999999995 L 744.3000000000001,220.10000000000002 L 746.2,222.5 C 747.2,223.79999999999995 748.0,225.10000000000002 748.0,225.5 M 713.1,137.0999999999999 C 710.7,138.79999999999995 707.7,140.5999999999999 706.6,141.0999999999999 C 704.4,141.9999999999999 702.5,143.0999999999999 697.5,146.5 C 695.9,147.60000000000002 693.3,149.20000000000005 691.8000000000001,150.0 C 685.6,153.39999999999998 672.0000000000001,161.70000000000005 664.3000000000001,166.69999999999993 C 659.8000000000001,169.5999999999999 655.7,171.9999999999999 655.1,172.0 C 654.6,172.0 652.9,173.10000000000002 651.3000000000001,174.29999999999995 C 649.8000000000001,175.5999999999999 647.3000000000001,177.29999999999995 645.8000000000001,178.0999999999999 C 640.8000000000001,180.69999999999993 626.5000000000001,189.29999999999995 626.0,190.0 C 625.7,190.39999999999998 623.9,191.60000000000002 621.9000000000001,192.5999999999999 C 619.9000000000001,193.69999999999993 615.7,196.19999999999993 612.6,198.19999999999993 C 609.5,200.29999999999995 605.5,202.69999999999993 603.8000000000001,203.5 C 600.0000000000001,205.29999999999995 596.5000000000001,207.39999999999998 585.4,214.69999999999993 C 580.9,217.5999999999999 576.8,219.9999999999999 576.2,220.0 C 575.6,220.0 574.5,220.60000000000002 573.8000000000001,221.19999999999993 C 573.0000000000001,221.89999999999998 571.5000000000001,222.9999999999999 570.5,223.60000000000002 C 568.5,224.70000000000005 568.5,226.39999999999998 568.5,312.5 C 568.5,371.9 568.8,400.40000000000003 569.5,400.7 C 570.5,401.0 573.1,396.9 580.5,383.5 C 582.1,380.7 586.5,372.9 590.5,366.0 C 594.5,359.1 601.4,346.9 605.9,338.79999999999995 L 614.1,324.09999999999997 L 614.0,288.1 C 613.9,247.30000000000007 613.0,251.5 623.6,245.39999999999998 C 632.0,240.5 634.4,239.0 657.8000000000001,225.0 L 676.9000000000001,213.5 L 684.1,200.5 C 688.0,193.29999999999995 692.5,185.20000000000005 694.0,182.5 C 696.4,178.10000000000002 707.8,157.29999999999995 715.5,143.5 C 717.0,140.70000000000005 718.6,138.10000000000002 719.1,137.5 C 720.4,136.10000000000002 720.2,134.0 718.8000000000001,134.0 C 718.1,134.0 715.5000000000001,135.39999999999998 713.1,137.10000000000002 M 769.0,134.5999999999999 C 769.0,134.9999999999999 770.7,138.29999999999995 772.9000000000001,141.89999999999998 C 775.0000000000001,145.5 780.0000000000001,154.60000000000002 784.1,162.0 C 788.2,169.29999999999995 793.2,178.29999999999995 795.2,182.0 C 797.3000000000001,185.60000000000002 799.3000000000001,189.20000000000005 799.7,190.0 C 800.1,190.79999999999995 803.2,196.5 806.6,202.5 L 812.9000000000001,213.5 L 830.2,224.10000000000002 C 839.7,229.89999999999998 853.7,238.39999999999998 861.3000000000001,242.89999999999998 L 875.0,251.19999999999993 L 875.0,287.79999999999995 L 875.0,324.5 L 879.1,331.5 C 882.7,337.6 886.8000000000001,344.9 895.5,360.5 C 896.7,362.7 899.8,368.1 902.4000000000001,372.5 C 907.9000000000001,381.8 907.4000000000001,381.0 913.7,392.2 C 918.4000000000001,400.9 920.4000000000001,402.7 921.3000000000001,399.2 C 922.0000000000001,396.59999999999997 921.8000000000001,226.29999999999995 921.1,225.19999999999993 C 920.8000000000001,224.69999999999993 916.8000000000001,222.0999999999999 912.3000000000001,219.39999999999998 C 907.8000000000001,216.69999999999993 899.7,211.79999999999995 894.3000000000001,208.60000000000002 C 888.9000000000001,205.30000000000007 882.3000000000001,201.30000000000007 879.5,199.69999999999993 C 873.8,196.29999999999995 869.9,193.79999999999995 862.0,188.79999999999995 C 859.0,186.79999999999995 854.9,184.39999999999998 853.0,183.29999999999995 C 851.1,182.29999999999995 847.0,179.89999999999998 844.0,178.0 C 837.2,173.60000000000002 785.3,142.10000000000002 778.5,138.19999999999993 C 772.9,134.89999999999998 769.0,133.4999999999999 769.0,134.5999999999999"/><path fill="#0E7C86" fill-rule="evenodd" d="M 760.0,317.59999999999997 C 746.2,325.79999999999995 744.3,326.7 742.5,325.59999999999997 C 730.6,317.99999999999994 714.7,308.99999999999994 713.2,309.0 C 712.7,309.0 708.8000000000001,315.4 704.5,323.2 C 700.2,331.09999999999997 695.6,339.2 694.3000000000001,341.2 C 693.0000000000001,343.3 692.0000000000001,345.4 692.0,346.0 C 692.0,347.2 693.5,348.1 721.4000000000001,365.09999999999997 C 733.5000000000001,372.4 743.9000000000001,378.29999999999995 744.5,378.29999999999995 C 745.2,378.29999999999995 757.5,371.19999999999993 771.9000000000001,362.59999999999997 L 798.1,346.79999999999995 L 794.9000000000001,341.09999999999997 C 781.7,317.59999999999997 776.8000000000001,308.99999999999994 776.2,308.59999999999997 C 775.8000000000001,308.4 768.5,312.4 760.0,317.59999999999997"/></svg>